<?xml version="1.0" standalone="no"?>
<!DOCTYPE svg PUBLIC "-//W3C//DTD SVG 20010904//EN"
 "http://www.w3.org/TR/2001/REC-SVG-20010904/DTD/svg10.dtd">
<svg version="1.0" xmlns="http://www.w3.org/2000/svg"
 width="1024.000000pt" height="1024.000000pt" viewBox="0 0 1024.000000 1024.000000"
 preserveAspectRatio="xMidYMid meet">
<metadata>
Created by potrace 1.14, written by Peter Selinger 2001-2017
</metadata>
<g transform="translate(0.000000,1024.000000) scale(0.100000,-0.100000)"
fill="#000000" stroke="none">
<path d="M4830 8880 c-797 -68 -1614 -414 -2225 -944 -91 -79 -280 -267 -381
-381 -214 -240 -427 -563 -579 -878 -170 -354 -284 -737 -341 -1152 -25 -188
-31 -639 -9 -845 31 -304 72 -514 149 -755 86 -272 152 -428 289 -683 331
-617 764 -1075 1377 -1458 578 -361 1266 -555 1970 -555 218 0 441 14 566 37
21 4 34 1 43 -10 13 -16 41 -22 41 -10 0 4 -8 13 -17 20 -17 12 -17 13 3 14
12 0 27 -7 34 -15 9 -11 16 -12 26 -4 7 6 28 12 46 14 18 2 55 6 82 9 45 5 48
4 30 -9 -16 -12 -17 -14 -3 -15 18 0 33 26 21 34 -4 2 -32 3 -61 2 -37 -2 -48
0 -36 6 9 6 28 7 42 4 13 -4 23 -3 20 1 -5 8 90 10 143 4 l25 -3 -25 -8 c-14
-4 -34 -8 -45 -8 -16 0 -15 2 5 8 20 6 21 8 5 8 -11 0 -29 -3 -40 -7 -16 -7
-9 -11 34 -20 30 -6 56 -9 59 -6 3 3 -1 5 -9 6 -26 1 25 18 58 18 17 1 33 6
35 13 8 24 67 34 150 24 53 -6 82 -6 86 1 4 5 33 13 65 17 37 4 66 14 79 26
13 12 36 20 57 20 37 0 121 35 121 51 0 5 -8 9 -17 9 -14 0 -14 3 -5 12 10 10
15 10 22 -2 8 -13 14 -13 41 3 23 12 34 15 39 7 5 -8 17 -3 36 13 16 13 34 26
39 28 54 21 124 99 89 99 -8 0 -14 5 -14 10 0 7 6 7 18 2 28 -15 142 5 162 28
10 11 22 20 29 20 6 0 11 5 11 10 0 6 -10 10 -22 10 -19 0 -18 3 13 25 l34 26
6 -23 c5 -23 5 -23 35 8 16 17 43 47 59 67 22 27 38 37 60 37 24 0 34 8 53 40
17 29 29 40 47 40 23 0 51 31 39 43 -3 3 -1 14 6 24 10 17 11 16 5 -3 -4 -15
-1 -21 11 -21 9 0 19 9 22 19 5 22 22 24 22 3 0 -15 19 -22 21 -7 0 4 2 15 4
25 2 10 -3 17 -12 17 -14 0 -13 3 2 20 10 11 26 20 36 20 10 0 20 4 23 9 3 5
15 7 26 4 15 -4 20 0 20 15 0 23 69 97 88 94 6 -2 12 2 12 8 0 5 -4 10 -10 10
-5 0 -10 5 -10 10 0 6 7 10 15 10 19 0 67 49 59 61 -3 5 1 6 8 4 18 -7 74 53
82 87 3 16 13 28 21 28 8 0 15 7 15 16 0 16 14 33 44 49 16 9 59 99 51 107 -2
2 4 9 12 17 13 12 14 11 8 -10 -5 -19 2 -15 37 21 35 36 43 51 41 75 -2 20 0
25 6 17 22 -35 88 97 68 135 -6 10 -15 21 -20 24 -5 4 -5 9 2 13 6 4 11 1 11
-6 0 -10 3 -9 11 2 8 12 9 11 4 -6 -5 -18 -2 -21 20 -17 25 5 66 58 64 84 0 8
-4 5 -9 -6 -5 -11 -9 -15 -9 -9 -1 14 60 127 73 136 5 4 13 5 16 3 3 -2 6 8 7
22 1 18 -2 22 -7 13 -5 -9 -8 0 -6 23 2 21 7 41 11 45 5 4 5 -1 2 -10 -8 -23
1 -48 18 -48 23 0 58 68 51 101 -3 18 -1 29 5 29 7 0 9 10 5 26 -4 14 -3 23 2
20 9 -6 42 28 42 44 0 16 -10 12 -32 -12 l-20 -23 19 30 c18 28 183 361 183
369 0 2 8 21 17 42 9 22 18 47 20 57 2 10 8 28 15 40 7 12 13 28 14 34 1 7 16
57 33 110 17 54 38 125 47 158 9 33 23 83 30 110 87 309 127 728 105 1099 -14
234 -31 366 -72 564 -104 501 -366 1065 -696 1501 -229 302 -566 621 -883 838
-486 331 -1069 551 -1695 639 -128 17 -627 27 -775 14z m655 -745 c397 -47
705 -139 1048 -311 318 -160 571 -347 838 -620 362 -370 642 -868 769 -1368
156 -613 102 -1300 -150 -1891 -167 -393 -391 -730 -677 -1020 -249 -254 -539
-463 -865 -623 -393 -194 -730 -283 -1189 -313 -451 -30 -956 59 -1394 246
-336 143 -760 433 -995 682 -429 451 -672 894 -794 1453 -89 401 -94 871 -15
1280 132 686 494 1320 994 1741 217 183 481 356 685 451 311 144 688 254 980
287 52 6 109 13 125 15 90 10 532 4 640 -9z m2985 -4893 c0 -4 -9 -15 -20 -25
-23 -19 -25 -15 -8 13 13 20 28 27 28 12z m-49 -75 c-10 -9 -11 -8 -5 6 3 10
9 15 12 12 3 -3 0 -11 -7 -18z m39 15 c0 -15 -25 -62 -32 -62 -11 0 -10 18 2
25 6 3 10 15 10 26 0 10 5 19 10 19 6 0 10 -4 10 -8z m-93 -96 c-3 -8 -1 -17
6 -19 7 -2 8 -8 4 -13 -4 -5 -12 -2 -17 6 -8 13 -10 13 -10 1 0 -8 -3 -12 -6
-9 -3 3 1 15 8 27 15 24 23 28 15 7z m-54 -122 c-3 -8 -12 -13 -20 -10 -11 5
-13 0 -8 -17 4 -15 4 -18 -3 -8 -8 11 -12 10 -21 -5 -6 -11 -11 -15 -11 -11 0
15 32 57 40 52 5 -3 11 -1 15 5 10 15 15 12 8 -6z m-41 -76 c-7 -7 -12 -8 -12
-2 0 14 12 26 19 19 2 -3 -1 -11 -7 -17z m-127 -138 c3 -5 1 -10 -4 -10 -6 0
-11 5 -11 10 0 6 2 10 4 10 3 0 8 -4 11 -10z m-15 -76 c0 -8 -5 -12 -10 -9 -6
4 -8 11 -5 16 9 14 15 11 15 -7z m-65 -63 c-3 -6 -11 -11 -17 -11 -6 0 -6 6 2
15 14 17 26 13 15 -4z m-149 -131 c0 -12 -4 -16 -9 -11 -5 5 -6 14 -3 20 10
15 12 14 12 -9z m-296 -307 c0 -3 -6 -3 -14 0 -8 3 -20 -2 -28 -10 -11 -14
-11 -16 4 -10 12 4 15 2 12 -8 -3 -7 -11 -16 -18 -18 -17 -7 -15 36 3 49 14
11 41 9 41 -3z m55 -3 c3 -6 -1 -7 -9 -4 -18 7 -21 14 -7 14 6 0 13 -4 16 -10z
m-145 -44 c0 -2 -8 -10 -17 -17 -16 -13 -17 -12 -4 4 13 16 21 21 21 13z m15
-44 c-3 -3 -11 0 -18 7 -9 10 -8 11 6 5 10 -3 15 -9 12 -12z m-110 -72 c3 -6
-1 -7 -9 -4 -18 7 -21 14 -7 14 6 0 13 -4 16 -10z m-80 -50 c-3 -5 -12 -10
-18 -10 -7 0 -6 4 3 10 19 12 23 12 15 0z m-26 -36 c14 -12 -19 -1 -35 12 -18
14 -18 14 6 3 14 -6 27 -13 29 -15z m-54 -22 c1 -11 -2 -19 -7 -16 -5 4 -7 12
-4 19 3 8 1 16 -5 19 -5 2 -4 3 2 2 7 -1 13 -12 14 -24z m-56 -21 c15 -10 7
-31 -12 -31 -8 0 -7 3 2 9 11 7 10 11 -5 20 -11 6 -14 10 -9 11 6 0 16 -4 24
-9z m46 -21 c-3 -5 -11 -10 -16 -10 -6 0 -7 5 -4 10 3 6 11 10 16 10 6 0 7 -4
4 -10z m-206 -79 c10 -7 7 -9 -12 -8 -14 1 -23 5 -20 10 6 9 15 9 32 -2z m-55
-63 c-7 -10 -35 -10 -51 0 -8 5 1 8 22 8 18 0 31 -4 29 -8z m-25 -27 c10 -7 7
-9 -12 -8 -14 1 -23 5 -20 10 6 9 15 9 32 -2z m51 -1 c8 -5 11 -10 5 -10 -5 0
-17 5 -25 10 -8 5 -10 10 -5 10 6 0 17 -5 25 -10z m-180 -44 c0 -2 -8 -10 -17
-17 -16 -13 -17 -12 -4 4 13 16 21 21 21 13z m-56 -25 c3 -4 -6 -6 -19 -3 -14
2 -25 6 -25 8 0 8 39 4 44 -5z m81 -11 c3 -6 -1 -7 -9 -4 -18 7 -21 14 -7 14
6 0 13 -4 16 -10z m-175 -50 c0 -5 -8 -10 -17 -10 -15 0 -16 2 -3 10 19 12 20
12 20 0z m180 -10 c0 -5 -7 -10 -16 -10 -8 0 -12 5 -9 10 3 6 10 10 16 10 5 0
9 -4 9 -10z m-233 -16 c0 -9 -9 -9 -31 -1 -43 14 -43 16 -4 14 19 -1 35 -7 35
-13z m50 0 c-3 -3 -12 -4 -19 -1 -8 3 -5 6 6 6 11 1 17 -2 13 -5z m-194 -61
c-7 -2 -19 -2 -25 0 -7 3 -2 5 12 5 14 0 19 -2 13 -5z m-27 -19 c18 -14 18
-14 -6 -3 -31 14 -36 19 -24 19 6 0 19 -7 30 -16z m51 0 c-3 -3 -12 -4 -19 -1
-8 3 -5 6 6 6 11 1 17 -2 13 -5z m113 -4 c0 -5 -7 -10 -16 -10 -8 0 -12 5 -9
10 3 6 10 10 16 10 5 0 9 -4 9 -10z m-393 -46 c-3 -3 -12 -4 -19 -1 -8 3 -5 6
6 6 11 1 17 -2 13 -5z m233 -34 c0 -5 -5 -10 -11 -10 -5 0 -7 5 -4 10 3 6 8
10 11 10 2 0 4 -4 4 -10z m-357 -7 c-7 -2 -19 -2 -25 0 -7 3 -2 5 12 5 14 0
19 -2 13 -5z m-150 -40 c-7 -2 -19 -2 -25 0 -7 3 -2 5 12 5 14 0 19 -2 13 -5z
m-180 -40 c-7 -2 -21 -2 -30 0 -10 3 -4 5 12 5 17 0 24 -2 18 -5z"/>
<path d="M4980 8013 c-321 -22 -580 -74 -855 -171 -226 -81 -310 -119 -523
-244 -512 -299 -892 -702 -1142 -1213 -207 -422 -301 -799 -317 -1265 -26
-782 242 -1484 788 -2068 71 -75 134 -141 141 -147 7 -5 39 -33 70 -61 210
-190 563 -403 863 -522 558 -222 1114 -266 1721 -138 750 159 1477 672 1896
1338 227 362 385 778 445 1173 26 175 26 663 0 820 -105 622 -366 1147 -787
1579 -425 436 -868 696 -1423 837 -263 66 -622 100 -877 82z m384 -928 c64 -8
146 -22 183 -31 169 -39 397 -131 543 -220 81 -50 279 -196 345 -256 47 -43
49 -46 35 -67 -8 -12 -120 -120 -249 -241 -231 -217 -234 -219 -256 -202 -279
220 -449 296 -729 322 -410 40 -860 -165 -1120 -509 -92 -123 -117 -165 -176
-300 -96 -216 -129 -403 -110 -621 22 -263 103 -480 257 -685 201 -269 477
-445 818 -521 97 -22 327 -30 423 -14 187 29 344 79 502 161 192 99 313 194
585 459 110 107 261 253 335 325 74 71 233 228 355 347 121 120 222 212 224
207 6 -20 -20 -263 -40 -361 -143 -713 -628 -1350 -1251 -1643 -324 -152 -611
-213 -953 -202 -404 12 -772 129 -1100 350 -119 80 -163 115 -268 217 -144
138 -244 265 -340 432 -184 319 -267 636 -267 1021 0 255 29 438 106 666 207
613 672 1078 1286 1285 116 40 258 72 371 85 121 14 369 12 491 -4z m1246
-930 c17 -9 39 -34 51 -57 18 -36 20 -47 10 -79 -6 -21 -26 -50 -43 -64 -28
-23 -39 -27 -81 -22 -62 6 -106 45 -113 103 -12 92 92 162 176 119z m-542
-280 l97 -94 -190 -191 c-104 -104 -194 -189 -200 -187 -5 2 -22 26 -38 53
-16 27 -55 81 -87 121 l-57 72 -21 -19 c-12 -11 -23 -20 -26 -20 -3 0 -33 18
-66 39 -82 53 -197 90 -302 98 -302 21 -565 -168 -647 -467 -37 -131 -24 -290
32 -404 18 -37 25 -45 30 -32 5 11 3 15 -5 10 -8 -5 -9 -2 -5 10 4 9 3 15 -2
11 -13 -7 -26 76 -13 84 5 3 12 39 14 80 3 40 11 77 17 81 7 4 13 17 14 28 1
12 7 22 14 22 7 0 13 9 13 19 0 10 7 22 16 25 9 4 14 13 10 22 -6 17 41 94 58
94 6 0 28 16 49 35 21 19 42 35 47 35 5 0 15 9 23 21 8 11 21 19 28 17 8 -1
25 5 39 14 14 9 49 19 78 23 28 4 52 11 52 16 0 5 14 9 31 9 17 0 58 7 90 15
33 9 79 15 102 14 23 -2 70 1 104 5 52 7 62 5 71 -9 7 -14 13 -15 31 -6 16 9
35 9 74 1 28 -6 63 -12 77 -13 28 -2 90 -43 90 -59 0 -6 8 -18 18 -27 10 -9
29 -52 42 -96 21 -65 25 -101 25 -195 0 -65 4 -118 10 -122 6 -4 29 -8 53 -8
l43 0 -7 -37 c-38 -211 -207 -422 -419 -524 -130 -63 -226 -82 -375 -77 -111
5 -136 9 -223 41 -115 42 -199 93 -281 174 -158 154 -250 397 -230 606 30 317
228 569 529 674 74 25 92 28 230 28 177 0 235 -13 372 -81 107 -53 147 -86
140 -114 -9 -34 24 -7 119 95 83 90 189 185 207 185 4 0 51 -43 105 -95z m480
-394 c125 -64 149 -210 49 -298 -115 -101 -290 -37 -313 114 -5 36 -1 53 22
101 23 46 38 62 74 80 55 27 118 28 168 3z"/>
<path d="M8693 3703 c-3 -10 -8 -22 -11 -27 -3 -5 0 -6 5 -3 11 7 25 47 17 47
-3 0 -7 -8 -11 -17z"/>
<path d="M8655 3619 c-4 -6 -5 -12 -2 -15 2 -3 7 2 10 11 7 17 1 20 -8 4z"/>
<path d="M8604 3497 c0 -12 -4 -31 -8 -42 -5 -13 -3 -12 7 4 11 18 16 21 21
10 3 -8 3 -3 0 11 -9 35 -19 43 -20 17z"/>
<path d="M8567 3443 c-4 -3 -7 -13 -7 -22 1 -13 3 -13 11 2 11 19 8 33 -4 20z"/>
<path d="M8532 3369 c-10 -16 -11 -28 -2 -55 15 -46 25 -37 12 10 -11 40 -6
48 8 14 6 -17 9 -18 9 -6 1 9 -3 19 -9 23 -5 3 -7 12 -3 20 8 22 0 18 -15 -6z"/>
<path d="M10216 2095 c-3 -9 0 -15 9 -15 8 0 15 7 15 15 0 8 -4 15 -9 15 -5 0
-11 -7 -15 -15z"/>
<path d="M10178 2026 c-10 -7 -18 -18 -18 -24 0 -22 -46 -81 -62 -82 -11 0
-18 -8 -18 -21 0 -19 -5 -21 -47 -17 -39 4 -54 0 -80 -19 -18 -13 -33 -30 -33
-37 0 -6 -12 -17 -27 -22 l-28 -10 30 -17 30 -16 -42 -1 c-37 0 -43 -3 -43
-22 0 -20 -1 -20 -18 -5 -17 16 -20 15 -38 -21 -18 -33 -25 -37 -62 -40 -37
-3 -42 -1 -42 17 0 26 -26 18 -33 -10 -5 -19 -27 -27 -27 -9 0 6 -4 10 -10 10
-5 0 -10 -11 -10 -25 0 -22 -4 -25 -40 -25 -25 0 -40 -5 -40 -12 -1 -20 -72
-70 -81 -57 -4 7 -9 8 -13 1 -3 -6 -2 -13 4 -17 16 -10 1 -25 -26 -25 -13 0
-24 -4 -24 -10 0 -5 -10 -9 -21 -7 -12 1 -24 -4 -26 -10 -3 -7 2 -13 11 -13 9
0 16 -7 16 -15 0 -13 -4 -14 -20 -5 -16 9 -26 5 -57 -25 -30 -29 -45 -35 -79
-35 -34 0 -44 -4 -49 -20 -3 -11 -12 -20 -20 -20 -7 0 -15 -4 -17 -8 -4 -9
-63 -52 -72 -52 -3 0 -6 7 -6 16 0 8 -5 12 -11 8 -8 -4 -8 -9 0 -17 20 -20 12
-27 -29 -27 -26 0 -40 -5 -40 -13 0 -9 12 -11 40 -9 26 3 40 0 40 -8 0 -7 -16
-11 -46 -9 -39 3 -49 -1 -65 -21 l-18 -25 -16 23 c-9 12 -24 21 -33 21 -15 -1
-15 -2 1 -6 30 -8 18 -23 -20 -24 -32 -2 -34 -3 -10 -6 28 -4 28 -5 11 -24
-16 -18 -16 -19 4 -19 l22 0 -20 -20 c-28 -28 -50 -26 -50 5 0 31 -5 31 -46 0
-18 -14 -44 -25 -58 -25 -14 0 -26 -4 -26 -10 0 -5 5 -10 11 -10 8 0 8 -5 -1
-15 -14 -17 -37 -20 -42 -4 -2 6 -19 0 -40 -15 -20 -13 -38 -21 -40 -17 -2 4
-13 -5 -26 -21 l-24 -28 24 0 c20 -1 21 -2 6 -11 -10 -5 -18 -19 -18 -29 0
-11 -9 -24 -21 -31 -17 -9 -20 -17 -16 -47 3 -21 3 -29 1 -19 -4 12 -16 17
-40 17 -21 0 -33 -4 -29 -10 3 -5 13 -10 21 -10 8 0 14 -4 14 -10 0 -14 -23
-13 -38 2 -20 20 -14 39 25 74 l37 34 -37 0 c-23 0 -37 -5 -37 -12 0 -7 -18
-26 -40 -41 -30 -22 -40 -25 -40 -13 0 10 -6 13 -16 9 -8 -3 -13 -12 -10 -20
3 -8 1 -23 -4 -33 -9 -16 -14 -18 -35 -8 -21 9 -29 7 -59 -16 -19 -14 -38 -26
-41 -26 -4 0 -21 -12 -38 -26 -21 -18 -32 -22 -37 -13 -4 6 -13 8 -19 5 -16
-10 -14 -26 4 -26 24 0 17 -13 -22 -43 -25 -19 -39 -24 -44 -16 -5 8 -16 5
-38 -10 -38 -27 -38 -35 -6 -67 14 -14 25 -29 25 -34 0 -6 -11 -10 -25 -10
-14 0 -25 3 -25 8 0 4 -19 6 -41 4 -25 -3 -44 0 -49 8 -5 8 -11 7 -23 -4 -8
-9 -25 -16 -36 -16 -12 0 -21 -6 -21 -15 0 -8 -3 -15 -7 -15 -5 0 -21 -11 -38
-25 l-30 -24 71 -1 71 0 7 40 c7 43 17 48 61 28 34 -15 27 -31 -18 -41 -21 -5
-37 -15 -37 -23 0 -9 -12 -14 -36 -14 -21 0 -53 -10 -73 -22 -20 -13 -45 -23
-55 -23 -11 0 -21 -6 -23 -12 -3 -7 2 -13 11 -13 27 0 18 -14 -24 -40 -22 -14
-40 -29 -40 -35 0 -6 17 -9 40 -7 31 3 40 8 40 23 0 23 25 25 34 3 9 -23 -12
-44 -43 -44 -15 0 -31 -8 -39 -20 -16 -26 -32 -26 -32 0 0 25 -5 25 -43 -2
-21 -15 -32 -18 -35 -10 -6 19 -42 -5 -42 -28 0 -14 7 -20 22 -20 20 0 19 -3
-12 -30 -19 -16 -45 -29 -57 -30 -13 0 -33 -10 -45 -23 l-23 -22 -3 23 c-2 14
-10 22 -23 22 -16 0 -19 -7 -19 -40 0 -35 -3 -40 -24 -40 -16 0 -26 -7 -29
-21 -4 -15 -11 -19 -25 -15 -25 8 -48 -17 -29 -32 8 -7 18 -7 27 -2 9 5 19 5
27 -2 8 -6 13 -6 13 -1 0 6 18 7 48 2 26 -4 692 -8 1480 -8 l1432 -1 0 1010
c0 667 -3 1010 -10 1010 -5 0 -10 -4 -10 -10 0 -18 -19 -10 -22 9 -3 17 -5 18
-20 7z m-670 -513 c-10 -2 -28 -2 -40 0 -13 2 -5 4 17 4 22 1 32 -1 23 -4z
m-208 -157 c0 -3 -4 -8 -10 -11 -5 -3 -10 -1 -10 4 0 6 5 11 10 11 6 0 10 -2
10 -4z m-253 -148 c-3 -8 -6 -5 -6 6 -1 11 2 17 5 13 3 -3 4 -12 1 -19z m-41
-17 c-10 -16 -46 -20 -46 -5 0 8 10 14 26 14 14 0 23 -4 20 -9z m-406 -211 c0
-13 -7 -20 -20 -20 -13 0 -20 7 -20 20 0 13 7 20 20 20 13 0 20 -7 20 -20z
m-227 -187 c-7 -2 -21 -2 -30 0 -10 3 -4 5 12 5 17 0 24 -2 18 -5z m-163 -43
c0 -25 -4 -30 -25 -30 -21 0 -25 5 -25 30 0 25 4 30 25 30 21 0 25 -5 25 -30z
m60 26 c0 -2 -7 -6 -15 -10 -8 -3 -15 -1 -15 4 0 6 7 10 15 10 8 0 15 -2 15
-4z m-243 -162 c-3 -3 -12 -4 -19 -1 -8 3 -5 6 6 6 11 1 17 -2 13 -5z m0 -100
c-3 -3 -12 -4 -19 -1 -8 3 -5 6 6 6 11 1 17 -2 13 -5z m-717 -454 c0 -5 -7
-10 -15 -10 -8 0 -15 5 -15 10 0 6 7 10 15 10 8 0 15 -4 15 -10z"/>
<path d="M9890 1850 c0 -5 7 -10 15 -10 8 0 15 5 15 10 0 6 -7 10 -15 10 -8 0
-15 -4 -15 -10z"/>
<path d="M9730 1697 l-25 -10 23 -5 c26 -4 36 1 31 16 -3 6 -14 5 -29 -1z"/>
<path d="M5650 1256 c0 -2 7 -6 15 -10 8 -3 15 -1 15 4 0 6 -7 10 -15 10 -8 0
-15 -2 -15 -4z"/>
<path d="M5960 1251 c0 -12 29 -23 41 -15 5 3 7 10 4 15 -8 12 -45 12 -45 0z"/>
<path d="M5615 1240 c3 -5 13 -10 21 -10 8 0 12 5 9 10 -3 6 -13 10 -21 10 -8
0 -12 -4 -9 -10z"/>
<path d="M5508 1233 c7 -3 16 -2 19 1 4 3 -2 6 -13 5 -11 0 -14 -3 -6 -6z"/>
<path d="M8008 723 c7 -3 16 -2 19 1 4 3 -2 6 -13 5 -11 0 -14 -3 -6 -6z"/>
<path d="M7495 310 c-3 -5 -2 -10 4 -10 5 0 13 5 16 10 3 6 2 10 -4 10 -5 0
-13 -4 -16 -10z"/>
<path d="M7440 270 c-13 -8 -12 -10 3 -10 9 0 17 5 17 10 0 12 -1 12 -20 0z"/>
<path d="M7320 190 c-12 -8 -11 -10 7 -10 12 0 25 5 28 10 8 13 -15 13 -35 0z"/>
</g>
</svg>
